<svg version="1.0" xmlns="http://www.w3.org/2000/svg"width="1598" height="835" viewBox="0 0 1598 835"> <g transform="translate(0,835) scale(0.1,-0.1)" fill="#FFFFFF"> <path d="M12600 8340 l-125 -5 85 -8 c118 -10 258 -35 365 -63 50 -13 101 -26 114 -29 63 -15 260 -94 377 -151 389 -191 729 -491 970 -856 65 -99 173 -302 222 -418 27 -64 98 -274 106 -316 3 -16 15 -69 26 -119 40 -180 53 -335 47 -565 -9 -375 -77 -663 -236 -995 -103 -214 -245 -430 -379 -576 -29 -31 -52 -60 -52 -63 0 -4 39 -53 86 -109 173 -205 350 -507 432 -737 102 -285 140 -486 149 -785 5 -191 1 -278 -23 -450 -13 -94 -59 -279 -99 -401 -239 -723 -806 -1298 -1525 -1549 -92 -31 -210 -65 -280 -79 -14 -3 -59 -12 -100 -20 -41 -8 -110 -18 -153 -22 -43 -4 -75 -9 -72 -12 3 -4 512 -7 1130 -9 l1124 -3 57 93 c86 138 278 500 367 692 376 809 617 1660 706 2495 12 107 23 213 26 235 29 267 30 965 1 1300 -24 267 -24 270 -61 527 -144 981 -477 1942 -976 2815 l-105 183 -1039 2 c-572 2 -1096 1 -1165 -2z"/> <path d="M1173 8328 c-46 -60 -298 -521 -378 -693 -214 -459 -384 -916 -508 -1365 -85 -307 -187 -836 -221 -1145 -46 -412 -60 -711 -53 -1095 3 -168 13 -386 21 -485 100 -1183 437 -2282 1014 -3302 l137 -242 2446 4 c1682 3 2474 7 2535 15 604 74 1173 380 1571 844 301 352 494 772 568 1241 23 140 31 453 16 601 -53 521 -256 995 -590 1382 l-72 83 25 32 c15 18 58 70 96 116 270 326 444 715 522 1167 30 176 33 580 5 749 -98 588 -340 1043 -775 1458 -173 165 -419 327 -662 437 -211 95 -508 176 -725 199 -53 5 -1091 10 -2526 10 -1946 1 -2438 -1 -2446 -11z m4440 -1170 c113 -31 275 -106 368 -169 163 -110 336 -320 410 -497 150 -359 123 -742 -75 -1067 -72 -119 -137 -194 -242 -283 -188 -158 -390 -244 -638 -273 -59 -6 -501 -9 -1251 -7 l-1160 3 -3 1163 -2 1163 1247 -3 1248 -3 98 -27z m-90 -3693 c309 -54 594 -242 769 -506 308 -462 244 -1078 -152 -1469 -179 -177 -436 -303 -675 -330 -46 -6 -580 -9 -1260 -7 l-1180 2 -3 1163 -2 1162 1207 0 c1042 0 1220 -2 1296 -15z"/> <path d="M9480 6030 l0 -1170 1209 0 c1327 0 1289 -2 1475 61 296 99 539 313 676 594 78 161 112 303 114 478 1 153 -10 251 -39 352 -62 212 -152 365 -304 515 -164 162 -349 261 -586 315 -61 15 -220 17 -1307 21 l-1238 4 0 -1170z"/> <path d="M9480 2321 l0 -1172 1253 4 c1246 3 1252 3 1333 24 210 57 376 148 527 292 178 169 292 373 343 611 21 99 23 345 5 450 -39 219 -156 443 -316 604 -164 166 -357 274 -585 328 -82 20 -126 20 -1322 25 l-1238 5 0 -1171z"/> </g> </svg>